<svg width="33" height="33" viewBox="0 0 33 33" fill="none" xmlns="http://www.w3.org/2000/svg">
<path d="M0.285645 9.32594C0.285645 10.7992 1.8593 11.1675 2.7968 10.2132L10.2131 2.79692C11.1841 1.84268 10.799 0.285767 9.32582 0.285767H1.80909C0.871582 0.285767 0.285645 0.921927 0.285645 1.82594V9.32594ZM4.60484 6.71434L25.8158 27.9421L27.9419 25.8493L6.73096 4.60497L4.60484 6.71434ZM32.2778 23.2378C32.2778 21.7478 30.7042 21.3962 29.7499 22.3338L22.3336 29.7501C21.3794 30.7211 21.7645 32.2779 23.2376 32.2779H30.7544C31.6919 32.2779 32.2778 31.6251 32.2778 30.7378V23.2378ZM32.2778 9.32594V1.82594C32.2778 0.921927 31.6919 0.285767 30.7544 0.285767H23.2376C21.7645 0.285767 21.3794 1.84268 22.3336 2.79692L29.7499 10.2132C30.7042 11.1675 32.2778 10.7992 32.2778 9.32594ZM6.73096 27.9421L27.9586 6.71434L25.8325 4.60497L4.60484 25.8326L6.73096 27.9421ZM0.285645 23.2378V30.7378C0.285645 31.6251 0.871582 32.2779 1.80909 32.2779H9.32582C10.799 32.2779 11.1841 30.7211 10.2131 29.7501L2.7968 22.3338C1.8593 21.3962 0.285645 21.7478 0.285645 23.2378Z" fill="#9EFF00"/>
</svg>
