<svg width="35" height="36" viewBox="0 0 35 36" fill="none" xmlns="http://www.w3.org/2000/svg">
<g clip-path="url(#clip0_26_5684)">
<path d="M3.71966 17.933C3.71966 16.4096 3.95403 14.9364 4.38931 13.5804L1.76095 12.4755C1.19176 14.1998 0.856934 16.0246 0.856934 17.933C0.856934 19.8248 1.19176 21.6663 1.77769 23.3906L4.38931 22.2857C3.95403 20.9298 3.71966 19.4565 3.71966 17.933ZM11.4205 5.24334L10.3491 2.66521C7.03439 4.32258 4.30559 7.05138 2.64823 10.3661L5.25983 11.4543C6.59912 8.79245 8.77546 6.61611 11.4205 5.24334ZM17.9161 3.70316C19.4395 3.70316 20.9128 3.93754 22.3022 4.38955L23.3736 1.77794C21.6494 1.192 19.8078 0.857178 17.9161 0.857178C16.0244 0.857178 14.1661 1.192 12.4418 1.77794L13.5467 4.38955C14.9194 3.93754 16.3926 3.70316 17.9161 3.70316ZM30.6058 11.4375L33.2006 10.3661C31.5266 7.05138 28.7978 4.32258 25.4831 2.64848L24.4116 5.24334C27.0566 6.59936 29.2498 8.77571 30.6058 11.4375ZM32.1628 17.933C32.1628 19.4565 31.9284 20.9297 31.4931 22.3025L34.0879 23.4075C34.6739 21.683 35.0086 19.8248 35.0086 17.933C35.0086 16.0246 34.6739 14.1831 34.0879 12.4587L31.4764 13.5637C31.9284 14.9364 32.1628 16.4096 32.1628 17.933ZM24.4116 30.606L25.4831 33.2176C28.8145 31.5436 31.5434 28.8148 33.1839 25.5L30.6225 24.4286C29.2665 27.0905 27.0735 29.25 24.4116 30.606ZM17.9328 32.163C16.3926 32.163 14.9194 31.9286 13.5467 31.4766L12.4585 34.0882C14.1828 34.6742 16.0411 35.0089 17.9328 35.0089C19.8245 35.0089 21.6661 34.6742 23.3736 34.1049L22.2855 31.4933C20.9128 31.9286 19.4562 32.163 17.9328 32.163ZM5.25983 24.4286L2.66496 25.5C4.33908 28.8148 7.03439 31.5436 10.3491 33.2009L11.4205 30.5893C8.77546 29.2333 6.59912 27.0737 5.25983 24.4286ZM17.8994 29.6183C24.4116 29.6183 29.6014 24.4286 29.5846 17.933C29.5679 11.4375 24.3781 6.24781 17.8826 6.24781C11.3871 6.24781 6.23082 11.4208 6.23082 17.933C6.23082 24.4453 11.4038 29.6183 17.8994 29.6183Z" fill="#9EFF00"/>
</g>
<defs>
<clipPath id="clip0_26_5684">
<rect width="34.1517" height="34.1686" fill="white" transform="translate(0.856934 0.857178)"/>
</clipPath>
</defs>
</svg>
