<svg width="36" height="33" viewBox="0 0 36 33" fill="none" xmlns="http://www.w3.org/2000/svg">
<path d="M5.12591 25.8661L6.48193 28.1763L18.4184 22.1831L30.3546 28.1763L31.7108 25.8661L19.7744 19.8728V5.74335H17.0791V19.8728L5.12591 25.8661ZM0.890416 28.2601C0.890416 28.9465 1.17501 29.4488 1.77769 29.7835L5.12591 31.7422C5.56118 32.0101 5.86252 32.0603 6.44845 31.7255L9.71296 29.8338C10.3156 29.4989 10.4328 29.2143 10.4161 28.6619L10.4328 24.7779C10.4328 24.1083 10.1315 23.6228 9.56229 23.2881L6.19733 21.3293C5.76206 21.0949 5.39376 21.0112 4.82456 21.3293L1.50984 23.2545C0.940639 23.5726 0.856934 23.9075 0.856934 24.3762L0.890416 28.2601ZM26.3201 28.6786C26.3034 29.2311 26.4205 29.5156 27.0232 29.8505L30.2878 31.7422C30.8736 32.0771 31.1751 32.0269 31.6102 31.7589L34.9585 29.8003C35.5612 29.4655 35.8458 28.9632 35.8458 28.2769L35.8792 24.3929C35.8792 23.9242 35.7955 23.5893 35.2264 23.2712L31.9116 21.3461C31.3424 21.0279 30.9741 21.1116 30.5388 21.3461L27.1739 23.3048C26.6046 23.6396 26.3034 24.1251 26.3034 24.7946L26.3201 28.6786ZM14.1493 8.60608L17.5311 10.548C18.1002 10.8661 18.6526 10.8661 19.2219 10.548L22.6036 8.60608C23.0724 8.33822 23.2732 8.08711 23.2732 7.40072V3.61724C23.2732 2.9476 23.0724 2.71322 22.6371 2.46211L19.2554 0.536882C18.6526 0.202061 18.0835 0.202061 17.4975 0.536882L14.1159 2.46211C13.6973 2.69648 13.463 2.9476 13.463 3.61724V7.40072C13.463 8.08711 13.7141 8.35497 14.1493 8.60608Z" fill="#9EFF00"/>
</svg>
