<svg width="31" height="40" viewBox="0 0 31 40" fill="none" xmlns="http://www.w3.org/2000/svg">
<path d="M0.714355 34.4866C0.714355 35.7924 0.998954 36.5793 2.2378 37.1819C5.10051 38.4207 9.05141 39.2411 13.7891 39.2411C18.4766 39.2411 23.7501 38.538 27.5335 36.6964C29.5425 35.7421 30.0279 34.8549 30.0279 32.779V7.08147C30.0279 4.36941 28.8226 3.13059 26.2111 3.13059H24.6374V2.46094C24.6374 0.803571 23.8004 0 22.3271 0C21.8248 0 21.2222 0.117187 20.5024 0.351563C15.4465 2.00893 10.826 3.06361 4.89963 3.06361H3.56034C1.7523 3.06361 0.714355 4.1183 0.714355 5.75893V34.4866ZM6.65744 15.7533V10.0949C6.65744 9.86049 6.82484 9.6596 7.05923 9.64286C10.9599 9.49219 14.442 8.8058 18.0079 7.5C18.2088 7.4163 18.5604 7.5 18.5604 7.90179V13.8114C18.5604 13.9621 18.4766 14.1127 18.3259 14.1629C15.2121 15.4353 11.1106 16.1551 7.05923 16.1551C6.84158 16.1551 6.65744 16.0211 6.65744 15.7533ZM7.51123 36.3783C14.0905 36.1941 20.2009 34.3527 23.5156 31.8247C24.2858 31.2389 24.6374 30.6361 24.6374 29.163V5.82589H26.2278C26.9644 5.82589 27.3326 6.22769 27.3326 7.08147V32.5949C27.3326 33.5993 27.1819 33.9676 26.2278 34.3861C22.8962 35.8426 18.2088 36.7801 13.7891 36.7801C11.6798 36.7801 9.68757 36.663 7.51123 36.3783Z" fill="#9EFF00"/>
</svg>
