<svg width="38" height="35" viewBox="0 0 38 35" fill="none" xmlns="http://www.w3.org/2000/svg">
<path d="M13.3852 34.1382C13.6865 34.1382 13.9042 33.9205 13.9544 33.6025C14.4901 29.1326 14.7077 29.0154 19.2613 28.2788C19.6129 28.2118 19.8304 28.0444 19.8304 27.7096C19.8304 27.3915 19.6129 27.1906 19.3283 27.1404C14.7412 26.2699 14.4901 26.2866 13.9544 21.8168C13.9042 21.4986 13.6865 21.2811 13.3852 21.2811C13.0671 21.2811 12.8495 21.4986 12.816 21.8001C12.2301 26.3368 12.0794 26.4875 7.44211 27.1404C7.15751 27.1739 6.93987 27.3915 6.93987 27.7096C6.93987 28.0276 7.15751 28.2118 7.44211 28.2788C12.0794 29.1661 12.2133 29.1661 12.816 33.6359C12.8495 33.9205 13.0671 34.1382 13.3852 34.1382ZM5.43317 19.5566C5.66755 19.5566 5.80148 19.3894 5.8517 19.1716C6.4209 15.9909 6.43764 15.7899 9.8026 15.2208C10.0202 15.1705 10.1876 15.0366 10.1876 14.8022C10.1876 14.5679 10.0202 14.4172 9.8026 14.3837C6.43764 13.7978 6.4209 13.5969 5.8517 10.4161C5.80148 10.1984 5.66755 10.0478 5.43317 10.0478C5.1988 10.0478 5.06487 10.1984 5.01465 10.4161C4.44545 13.5969 4.42871 13.7978 1.06376 14.3837C0.846122 14.4172 0.678711 14.5679 0.678711 14.8022C0.678711 15.0366 0.846122 15.1705 1.06376 15.2208C4.42871 15.7899 4.44545 15.9909 5.01465 19.1716C5.06487 19.3894 5.1988 19.5566 5.43317 19.5566ZM14.6073 8.84242C14.8082 8.84242 14.9086 8.72523 14.9421 8.54109C15.5113 5.86252 15.4779 5.76206 18.2903 5.19288C18.4744 5.15939 18.6084 5.04221 18.6084 4.85805C18.6084 4.65716 18.4744 4.53996 18.2903 4.50649C15.4779 3.93729 15.5113 3.83685 14.9421 1.17501C14.9086 0.990862 14.8082 0.856934 14.6073 0.856934C14.4064 0.856934 14.3059 0.990862 14.2725 1.17501C13.7033 3.83685 13.7367 3.93729 10.9243 4.50649C10.7401 4.53996 10.6062 4.65716 10.6062 4.85805C10.6062 5.04221 10.7401 5.15939 10.9243 5.19288C13.7367 5.76206 13.7033 5.86252 14.2725 8.54109C14.3059 8.72523 14.4064 8.84242 14.6073 8.84242ZM28.4354 14.752C28.6699 14.752 28.8037 14.6013 28.854 14.3837C29.4231 11.2029 29.4399 11.002 32.8049 10.4161C33.0391 10.3826 33.1899 10.2319 33.1899 9.99756C33.1899 9.76319 33.0391 9.62925 32.8049 9.57903C29.4399 9.00983 29.4231 8.80895 28.854 5.62813C28.8037 5.4105 28.6699 5.24309 28.4354 5.24309C28.201 5.24309 28.0671 5.4105 28.0169 5.62813C27.4477 8.80895 27.431 9.00983 24.066 9.57903C23.8484 9.62925 23.681 9.76319 23.681 9.99756C23.681 10.2319 23.8484 10.3826 24.066 10.4161C27.431 11.002 27.4477 11.2029 28.0169 14.3837C28.0671 14.6013 28.201 14.752 28.4354 14.752ZM34.027 33.8704C34.73 34.5902 35.9354 34.5902 36.605 33.8704C37.2914 33.1338 37.2914 31.9954 36.605 31.2922L20.6843 15.3212C19.9811 14.6181 18.7759 14.6181 18.1061 15.3212C17.403 16.0578 17.4199 17.2129 18.1061 17.9161L34.027 33.8704ZM24.2836 22.3692L19.3784 17.4474C19.0771 17.1459 18.9767 16.8112 19.278 16.5266C19.5291 16.2586 19.8807 16.3256 20.1989 16.6438L25.1207 21.5656L24.2836 22.3692Z" fill="#9EFF00"/>
</svg>
