<svg width="29" height="39" viewBox="0 0 29 39" fill="none" xmlns="http://www.w3.org/2000/svg">
<path d="M5.35163 38.146H24.0514C26.8304 38.146 28.6886 36.3716 28.6886 33.7265V4.86485C28.6886 2.21977 26.8304 0.428467 24.0514 0.428467H5.35163C2.57261 0.428467 0.714355 2.21977 0.714355 4.86485V33.7265C0.714355 36.3716 2.57261 38.146 5.35163 38.146ZM5.68646 35.4508C4.24673 35.4508 3.40967 34.6472 3.40967 33.2745V5.31687C3.40967 3.9441 4.24673 3.12378 5.68646 3.12378H23.7166C25.1396 3.12378 25.9934 3.9441 25.9934 5.31687V33.2745C25.9934 34.6472 25.1396 35.4508 23.7166 35.4508H5.68646ZM8.28133 15.847H21.1385C22.0258 15.847 22.6284 15.261 22.6284 14.3236V10.7075C22.6284 9.76998 22.0258 9.18405 21.1385 9.18405H8.28133C7.39404 9.18405 6.79137 9.76998 6.79137 10.7075V14.3236C6.79137 15.261 7.39404 15.847 8.28133 15.847ZM8.28133 29.357H21.1385C22.0258 29.357 22.6284 28.7543 22.6284 27.8336V24.2008C22.6284 23.28 22.0258 22.6773 21.1385 22.6773H8.28133C7.39404 22.6773 6.79137 23.28 6.79137 24.2008V27.8336C6.79137 28.7543 7.39404 29.357 8.28133 29.357Z" fill="#9EFF00"/>
</svg>
