<svg width="38" height="37" viewBox="0 0 38 37" fill="none" xmlns="http://www.w3.org/2000/svg">
<path d="M11.7937 25.8916C11.258 25.3392 10.3037 25.3392 9.73451 25.8916L6.28585 29.3236C5.7334 29.876 5.7334 30.8302 6.26911 31.3828C6.82157 31.9352 7.77581 31.9519 8.34501 31.3995L11.7937 27.9508C12.3629 27.3983 12.3629 26.4609 11.7937 25.8916ZM8.76354 18.5925C8.76354 17.8058 8.09388 17.136 7.29031 17.136H2.38518C1.59835 17.136 0.928711 17.8058 0.928711 18.5925C0.928711 19.3793 1.59835 20.049 2.38518 20.049H7.29031C8.09388 20.049 8.76354 19.3793 8.76354 18.5925ZM11.6263 11.1428C12.1955 10.5903 12.1955 9.6528 11.6263 9.0836L8.19434 5.63494C7.64188 5.08248 6.70438 5.06574 6.13518 5.6182C5.58273 6.17065 5.58273 7.10815 6.13518 7.67735L9.56711 11.1428C10.1363 11.712 11.0738 11.712 11.6263 11.1428ZM19.0927 8.22981C19.8963 8.22981 20.566 7.56017 20.566 6.77334V1.88494C20.566 1.09811 19.8963 0.428467 19.0927 0.428467C18.306 0.428467 17.6363 1.09811 17.6363 1.88494V6.77334C17.6363 7.56017 18.306 8.22981 19.0927 8.22981ZM26.3751 11.3102C26.9443 11.8794 27.8986 11.8794 28.451 11.3102L31.8997 7.8615C32.4689 7.29231 32.4689 6.35481 31.8997 5.78561C31.3473 5.23315 30.4097 5.23315 29.8573 5.78561L26.3751 9.25101C25.8227 9.82021 25.8227 10.7577 26.3751 11.3102ZM29.4556 18.5925C29.4556 19.3793 30.1251 20.049 30.912 20.049H35.8004C36.604 20.049 37.2736 19.3793 37.2736 18.5925C37.2736 17.8058 36.604 17.136 35.8004 17.136H30.912C30.1251 17.136 29.4556 17.8058 29.4556 18.5925ZM17.7703 30.2276C17.7534 30.8805 18.5069 31.0813 18.9421 30.6629L21.4867 28.1015L24.3494 35.1829C24.4834 35.4843 24.8183 35.6516 25.1196 35.5178L26.7937 34.8649C27.095 34.7142 27.2121 34.3626 27.0616 34.0613L24.0481 27.097L27.6641 26.9463C28.2836 26.9129 28.6017 26.3102 28.1497 25.8246L18.9923 16.4329C18.5739 15.9976 17.9376 16.232 17.9209 16.8515L17.7703 30.2276Z" fill="#9EFF00"/>
</svg>
