<svg width="36" height="35" viewBox="0 0 36 35" fill="none" xmlns="http://www.w3.org/2000/svg">
<path d="M1.84801 20.0257C2.81899 20.0257 3.58908 19.2556 3.58908 18.3013C3.58908 17.3303 2.81899 16.5603 1.84801 16.5603C0.877022 16.5603 0.106934 17.3303 0.106934 18.3013C0.106934 19.2556 0.877022 20.0257 1.84801 20.0257ZM5.79891 8.29021C6.76988 8.29021 7.53996 7.50338 7.53996 6.54915C7.53996 5.57816 6.76988 4.80806 5.79891 4.80806C4.84466 4.80806 4.05782 5.57816 4.05782 6.54915C4.05782 7.50338 4.84466 8.29021 5.79891 8.29021ZM17.5679 4.33932C18.5221 4.33932 19.2922 3.56923 19.2922 2.59825C19.2922 1.64401 18.5221 0.857178 17.5679 0.857178C16.5969 0.857178 15.8268 1.64401 15.8268 2.59825C15.8268 3.56923 16.5969 4.33932 17.5679 4.33932ZM29.3201 8.29021C30.2911 8.29021 31.0612 7.50338 31.0612 6.54915C31.0612 5.57816 30.2911 4.80806 29.3201 4.80806C28.3491 4.80806 27.5791 5.57816 27.5791 6.54915C27.5791 7.50338 28.3491 8.29021 29.3201 8.29021ZM33.2878 20.0257C34.2419 20.0257 35.0121 19.2556 35.0121 18.3013C35.0121 17.3303 34.2419 16.5603 33.2878 16.5603C32.3168 16.5603 31.5466 17.3303 31.5466 18.3013C31.5466 19.2556 32.3168 20.0257 33.2878 20.0257ZM30.4251 32.3472C31.1616 32.3472 31.7978 31.7445 31.7978 31.0079C31.7978 30.2545 31.1616 29.635 30.4251 29.635H28.3826V18.5357C28.3826 12.4253 23.6616 7.70428 17.5679 7.70428C11.4574 7.70428 6.76988 12.4253 6.76988 18.5357V29.635H4.69399C3.95738 29.635 3.37145 30.2545 3.37145 31.0079C3.37145 31.7445 3.95738 32.3472 4.69399 32.3472H30.4251ZM18.9741 18.586V29.635H16.1784V18.586C16.1784 17.8159 16.7978 17.1798 17.5679 17.1798C18.3379 17.1798 18.9741 17.8159 18.9741 18.586Z" fill="#9EFF00"/>
</svg>
