<svg width="286" height="66" viewBox="0 0 286 66" fill="none" xmlns="http://www.w3.org/2000/svg">
<g clip-path="url(#clip0_26_8759)">
<path d="M286 0H0V166H286V0Z" fill="#009B3A"/>
<path d="M24.3101 83.0001L143 145.843L261.69 83.0001L143 20.1572L24.3101 83.0001Z" fill="#FEDF00"/>
<path d="M143 124.5C170.642 124.5 193.05 105.92 193.05 83C193.05 60.0802 170.642 41.5 143 41.5C115.358 41.5 92.95 60.0802 92.95 83C92.95 105.92 115.358 124.5 143 124.5Z" fill="#002776"/>
<mask id="mask0_26_8759" style="mask-type:luminance" maskUnits="userSpaceOnUse" x="92" y="41" width="102" height="84">
<path d="M143 124.5C170.642 124.5 193.05 105.92 193.05 83C193.05 60.0802 170.642 41.5 143 41.5C115.358 41.5 92.95 60.0802 92.95 83C92.95 105.92 115.358 124.5 143 124.5Z" fill="white"/>
</mask>
<g mask="url(#mask0_26_8759)">
<path d="M-7.15015 166C-7.15015 139.27 5.65598 113.634 28.451 94.7333C51.2461 75.8323 82.1628 65.2139 114.4 65.2139C146.637 65.2139 177.554 75.8323 200.349 94.7333C223.144 113.634 235.95 139.27 235.95 166H228.8C228.8 140.842 216.747 116.715 195.293 98.9254C173.839 81.1363 144.741 71.1424 114.4 71.1424C84.0591 71.1424 54.961 81.1363 33.5068 98.9254C12.0527 116.715 -0.000146389 140.842 -0.000146389 166H-7.15015Z" fill="white"/>
</g>
</g>
<defs>
<clipPath id="clip0_26_8759">
<rect width="286" height="166" rx="10" fill="white"/>
</clipPath>
</defs>
</svg>
